Coordinates
version=1
nRows=26
nColumns=24
inDegrees=yes

Units are S.I. units (second, meters, Newtons, ...)
Angles are in degrees.

endheader
time	torso_tilt	torso_list	torso_rotation	torso_tx	torso_ty	torso_tz	lumbar_extension	lumbar_bending	lumbar_rotation	hip_flexion_r	hip_adduction_r	hip_rotation_r	knee_angle_r	ankle_angle_r	subtalar_angle_r	mtp_angle_r	hip_flexion_l	hip_adduction_l	hip_rotation_l	knee_angle_l	ankle_angle_l	subtalar_angle_l	mtp_angle_l
     14.59000000	    -12.72843260	     -1.41596293	      8.37045726	     -0.13509727	      0.96677477	      0.02439865	     12.42560785	      2.96400036	     -0.20692014	     -8.83907336	     -3.54722280	    -14.39823798	    -74.75403214	    -17.36421413	     -6.03796230	      0.00000000	     22.72615401	     11.94856495	      4.15104213	    -32.58540758	     13.94242590	     -4.77897235	      0.00000000
     14.60000000	    -13.19610510	     -1.62804014	      7.50242393	     -0.13842047	      0.95825404	      0.02397284	     13.34568733	      3.35675258	      1.22481125	     -7.80343309	     -4.48803263	    -15.45811283	    -78.81113736	    -15.43767811	     -7.19698826	      0.00000000	     23.87504211	     12.22614292	      3.34571626	    -38.48115045	     18.41852177	     -2.77119446	      0.00000000
     14.61000000	    -13.86638165	     -1.82120559	      6.66561271	     -0.14197553	      0.95170755	      0.02444770	     14.69561450	      3.29753488	      2.47542867	     -6.80100077	     -4.38411282	    -16.01080633	    -82.24180541	    -13.50061167	     -9.09437167	      0.00000000	     24.03907892	     11.77690384	      3.00728677	    -43.22626118	     22.60633517	     -0.27098370	      0.00000000
     14.62000000	    -14.42203915	     -1.96863418	      5.87948618	     -0.14469610	      0.94614829	      0.02495691	     15.95905047	      3.67861322	      3.35881146	     -5.92722482	     -5.05820791	    -16.36667556	    -85.14576290	    -11.28893790	    -10.04909365	      0.00000000	     23.24382168	     11.73499334	      2.90019706	    -46.26540137	     25.49917913	      0.84624403	      0.00000000
     14.63000000	    -14.78250257	     -2.14565489	      5.18697273	     -0.14680296	      0.94191254	      0.02534452	     16.58762976	      4.08684130	      3.79963133	     -4.32628776	     -5.67316750	    -16.24719013	    -87.80173115	     -8.87682701	    -10.94832584	      0.00000000	     22.31168784	     11.58690819	      2.75976587	    -48.16614012	     27.83633119	      1.47702988	      0.00000000
     14.64000000	    -14.98460053	     -2.27277896	      4.23500274	     -0.14818056	      0.93927559	      0.02545524	     16.56060840	      4.36228901	      4.27961525	     -2.03526987	     -5.96961271	    -15.79535057	    -90.01707453	     -6.65137775	    -11.75983261	      0.00000000	     21.36209168	     11.20550668	      2.64324739	    -49.03303580	     29.64246723	      1.47938106	      0.00000000
     14.65000000	    -15.09352131	     -2.28739062	      3.13532576	     -0.14909913	      0.93849275	      0.02537031	     16.22857964	      4.33274233	      4.85471367	      0.53465698	     -5.83606084	    -15.20620757	    -91.56989953	     -4.59208067	    -12.46322699	      0.00000000	     20.23450104	     10.50882390	      2.52352475	    -49.23575558	     31.30879917	      1.80393855	      0.00000000
     14.66000000	    -15.21814642	     -2.19627045	      1.90927575	     -0.15025409	      0.93913229	      0.02484387	     15.94763417	      4.16085800	      5.50499601	      3.14953775	     -5.56250561	    -14.54402803	    -92.58040092	     -2.81145266	    -12.71002974	      0.00000000	     18.77681570	      9.73036376	      2.38170960	    -48.89626476	     32.66178915	      1.97963256	      0.00000000
     14.67000000	    -15.42245940	     -2.00666467	      0.66845381	     -0.15188790	      0.94106483	      0.02400169	     15.79562056	      3.86961682	      6.16408937	      5.75873648	     -5.21195845	    -13.89379966	    -92.99494975	     -1.51817238	    -12.84633216	      0.00000000	     17.08172800	      8.91014812	      2.19039028	    -48.03872133	     33.70194559	      2.42617696	      0.00000000
     14.68000000	    -15.73567022	     -1.69568042	     -0.67121864	     -0.15397268	      0.94473814	      0.02279695	     15.75374833	      3.40876027	      6.89058564	      8.38010409	     -4.73854230	    -13.22687109	    -92.74552898	     -0.27724399	    -12.83476186	      0.00000000	     15.22936659	      7.98935910	      1.94536767	    -46.62332416	     34.04539042	      2.66488389	      0.00000000
     14.69000000	    -16.07749410	     -1.34459652	     -2.19919106	     -0.15588562	      0.94953584	      0.02144254	     15.74766554	      2.86625378	      7.73366463	     10.86738572	     -4.10281940	    -12.53755650	    -91.84997965	      1.03689703	    -12.06449085	      0.00000000	     13.28719238	      6.91219077	      1.48020077	    -44.95799981	     33.87095222	      3.11560615	      0.00000000
     14.70000000	    -16.27746529	     -0.99108017	     -3.74404154	     -0.15704007	      0.95563225	      0.02034576	     15.40398498	      2.19459809	      8.60412442	     13.46774302	     -3.16751700	    -11.88283033	    -90.27908887	      2.41024366	    -11.15586436	      0.00000000	     11.44250984	      5.65810307	      0.83134306	    -42.91596527	     33.06924290	      3.49423849	      0.00000000
     14.71000000	    -16.36842982	     -0.62134385	     -5.29929681	     -0.15732032	      0.96274516	      0.01924506	     14.79637940	      1.47449260	      9.41985805	     16.03179037	     -2.16242637	    -11.23392639	    -88.02708795	      3.85626062	    -10.36162951	      0.00000000	      9.65286346	      4.42432155	      0.09701083	    -40.54826312	     31.51147128	      3.96351112	      0.00000000
     14.72000000	    -16.36022454	     -0.23567733	     -6.86115588	     -0.15683165	      0.97091309	      0.01829758	     14.14864003	      0.76188146	     10.22566100	     18.23313823	     -1.13505622	    -10.66258705	    -85.05656497	      5.14174582	     -9.81791188	      0.00000000	      7.65907226	      3.25101114	     -0.80177472	    -37.80382384	     29.01750389	      4.41621524	      0.00000000
     14.73000000	    -16.32140401	      0.16260839	     -8.44117857	     -0.15615524	      0.97954312	      0.01724619	     13.62600199	      0.06952071	     11.00257597	     20.06630725	     -0.07571813	    -10.08279405	    -81.47268339	      6.13479777	     -8.99581565	      0.00000000	      5.45719894	      2.15689903	     -1.87662077	    -34.87199477	     25.82717106	      4.93695056	      0.00000000
     14.74000000	    -16.17922247	      0.52099285	     -9.99695734	     -0.15496548	      0.98813850	      0.01660053	     13.14164477	     -0.56926159	     11.88842493	     21.42236039	      0.99611666	     -9.64535111	    -77.35942727	      6.80887712	     -8.50536594	      0.00000000	      3.18352449	      1.11487069	     -3.09776734	    -31.97371849	     22.14813908	      5.71616096	      0.00000000
     14.75000000	    -16.00982677	      0.80545121	    -11.42278293	     -0.15358132	      0.99692734	      0.01635863	     12.83471326	     -1.03066225	     12.69948684	     22.25191320	      2.02053524	     -9.21119591	    -72.68330025	      7.03386146	     -8.29251026	      0.00000000	      0.68712047	      0.17899761	     -4.56223062	    -29.02259657	     18.22219417	      7.41277055	      0.00000000
     14.76000000	    -15.85170831	      1.09705777	    -12.77927022	     -0.15226834	      1.00552805	      0.01610811	     12.64053878	     -1.40461935	     13.49036297	     22.71253559	      2.92231780	     -8.75313194	    -67.61757408	      7.11074011	     -7.94898211	      0.00000000	     -1.76924538	     -0.57909823	     -5.97118407	    -26.21184109	     13.58845360	      8.94640855	      0.00000000
     14.77000000	    -15.63386402	      1.29833473	    -13.98441337	     -0.15067666	      1.01362926	      0.01627676	     12.34205473	     -1.58148778	     14.14956420	     22.99011069	      3.65250187	     -8.31632175	    -62.25006178	      6.97231854	     -7.90213614	      0.00000000	     -4.06132199	     -1.14109893	     -7.43765567	    -23.63207391	      8.61565659	     10.90803793	      0.00000000
     14.78000000	    -15.43470188	      1.44357722	    -14.86145653	     -0.14899944	      1.02110015	      0.01670212	     11.90644073	     -1.65365900	     14.66182593	     23.17939124	      4.19042821	     -7.88495539	    -56.70219504	      7.12838742	     -7.59874564	      0.00000000	     -5.91956104	     -1.49820634	     -8.53583638	    -21.50010949	      3.43606996	     12.66941019	      0.00000000
     14.79000000	    -15.11365973	      1.54057912	    -15.73138952	     -0.14695347	      1.02792607	      0.01735196	     11.13142120	     -1.54649789	     15.26082246	     23.40552135	      4.42345090	     -7.42584548	    -51.14394440	      7.34046269	     -6.91535655	      0.00000000	     -7.37987291	     -1.55559502	     -9.06399877	    -19.71240764	     -1.38969795	     14.32273763	      0.00000000
     14.80000000	    -14.72569150	      1.59909598	    -16.49388588	     -0.14490421	      1.03367567	      0.01818305	     10.14226303	     -1.28150107	     15.73958102	     23.68606915	      4.43023174	     -6.82882567	    -45.56657410	      7.56681718	     -5.95391858	      0.00000000	     -8.48635034	     -1.30026530	     -9.13696923	    -18.42980005	     -5.34321548	     15.34375845	      0.00000000
     14.81000000	    -14.42762716	      1.60115640	    -17.10459239	     -0.14313770	      1.03839781	      0.01940768	      8.92077802	     -0.79462285	     16.21693731	     24.23826335	      4.08089563	     -6.16966122	    -40.25076015	      8.02129681	     -4.39761126	      0.00000000	     -8.87771583	     -0.71483294	     -8.57846740	    -17.97987507	     -8.42924896	     15.34464114	      0.00000000
     14.82000000	    -14.11435763	      1.58877384	    -17.50747931	     -0.14148726	      1.04229861	      0.02075579	      7.55109913	     -0.26840732	     16.55360661	     24.86852824	      3.58267424	     -5.46642876	    -35.08166229	      8.47546181	     -2.72015103	      0.00000000	     -8.80792845	      0.02510180	     -7.67965003	    -18.31193038	    -11.27718474	     14.78918502	      0.00000000
     14.83000000	    -13.81350412	      1.56168361	    -17.85253424	     -0.14007926	      1.04508811	      0.02229777	      6.16684600	      0.31773640	     16.89845193	     25.43948506	      2.96603431	     -4.57033796	    -29.97951510	      9.17665041	     -0.70881400	      0.00000000	     -8.35623321	      0.86349633	     -6.62309543	    -19.57239925	    -14.04636654	     13.47367602	      0.00000000
     14.84000000	    -13.55640333	      1.53232884	    -18.07852828	     -0.13918808	      1.04668681	      0.02363043	      4.98666873	      0.89946505	     17.13995321	     25.82429386	      2.35971668	     -3.84889547	    -25.12000534	      9.84960635	      0.76322751	      0.00000000	     -7.75112098	      1.71066108	     -5.45807106	    -21.63890251	    -16.92829863	     11.70796183	      0.00000000
